<?xml version="1.0"?>
<svg xmlns="http://www.w3.org/2000/svg" viewBox="0 0 64 64">
    <path d="M 3 6 C 1.346 6 0 7.346 0 9 L 0 47 C 0 48.654 1.346 50 3 50 L 26 50 L 26 54 L 22.65625 54 C 21.32125 54 20.065094 54.520844 19.121094 55.464844 L 16.292969 58.292969 C 16.006969 58.578969 15.921172 59.008813 16.076172 59.382812 C 16.231172 59.755812 16.596 60 17 60 L 45 60 C 45.404 60 45.768828 59.755812 45.923828 59.382812 C 46.078828 59.008812 45.993031 58.578969 45.707031 58.292969 L 42.878906 55.464844 C 41.934906 54.520844 40.67975 54 39.34375 54 L 36 54 L 36 50 L 59 50 C 60.654 50 62 48.654 62 47 L 62 9 C 62 7.346 60.654 6 59 6 L 3 6 z M 3 8 L 59 8 C 59.551 8 60 8.449 60 9 L 60 42 L 2 42 L 2 9 C 2 8.449 2.449 8 3 8 z M 5 10 C 4.448 10 4 10.448 4 11 C 4 11.552 4.448 12 5 12 L 49 12 C 49.552 12 50 11.552 50 11 C 50 10.448 49.552 10 49 10 L 5 10 z M 53 10 C 52.448 10 52 10.448 52 11 C 52 11.552 52.448 12 53 12 L 57 12 C 57.552 12 58 11.552 58 11 C 58 10.448 57.552 10 57 10 L 53 10 z M 31 16 A 2 2 0 0 0 29 18 A 2 2 0 0 0 31 20 A 2 2 0 0 0 33 18 A 2 2 0 0 0 31 16 z M 29.039062 22 C 28.559062 22 28.080078 22.4 28.080078 23 C 28.080078 23.6 28.439062 24 29.039062 24 L 30 24 L 30 36 L 28.039062 36 C 27.559062 36 27.080078 36.4 27.080078 37 C 27.080078 37.6 27.439062 38 28.039062 38 L 34 38 C 34.6 38 34.960938 37.6 34.960938 37 C 34.960938 36.4 34.6 36 34 36 L 32 36 L 32 24 L 33 24 C 33.6 24 33.960938 23.6 33.960938 23 C 33.960938 22.4 33.6 22 33 22 L 29.039062 22 z M 5 28 C 4.448 28 4 28.448 4 29 L 4 31 C 4 31.552 4.448 32 5 32 C 5.552 32 6 31.552 6 31 L 6 29 C 6 28.448 5.552 28 5 28 z M 10 28 C 9.448 28 9 28.448 9 29 L 9 31 C 9 31.552 9.448 32 10 32 C 10.552 32 11 31.552 11 31 L 11 29 C 11 28.448 10.552 28 10 28 z M 15 28 C 14.448 28 14 28.448 14 29 L 14 31 C 14 31.552 14.448 32 15 32 C 15.552 32 16 31.552 16 31 L 16 29 C 16 28.448 15.552 28 15 28 z M 20 28 C 19.448 28 19 28.448 19 29 L 19 31 C 19 31.552 19.448 32 20 32 C 20.552 32 21 31.552 21 31 L 21 29 C 21 28.448 20.552 28 20 28 z M 25 28 C 24.448 28 24 28.448 24 29 L 24 31 C 24 31.552 24.448 32 25 32 C 25.552 32 26 31.552 26 31 L 26 29 C 26 28.448 25.552 28 25 28 z M 37 28 C 36.448 28 36 28.448 36 29 L 36 31 C 36 31.552 36.448 32 37 32 C 37.552 32 38 31.552 38 31 L 38 29 C 38 28.448 37.552 28 37 28 z M 42 28 C 41.448 28 41 28.448 41 29 L 41 31 C 41 31.552 41.448 32 42 32 C 42.552 32 43 31.552 43 31 L 43 29 C 43 28.448 42.552 28 42 28 z M 47 28 C 46.448 28 46 28.448 46 29 L 46 31 C 46 31.552 46.448 32 47 32 C 47.552 32 48 31.552 48 31 L 48 29 C 48 28.448 47.552 28 47 28 z M 52 28 C 51.448 28 51 28.448 51 29 L 51 31 C 51 31.552 51.448 32 52 32 C 52.552 32 53 31.552 53 31 L 53 29 C 53 28.448 52.552 28 52 28 z M 57 28 C 56.448 28 56 28.448 56 29 L 56 31 C 56 31.552 56.448 32 57 32 C 57.552 32 58 31.552 58 31 L 58 29 C 58 28.448 57.552 28 57 28 z M 2 44 L 60 44 L 60 47 C 60 47.551 59.551 48 59 48 L 36 48 L 26 48 L 3 48 C 2.449 48 2 47.551 2 47 L 2 44 z M 28 50 L 34 50 L 34 54 L 28 54 L 28 50 z M 22.65625 56 L 26 56 L 36 56 L 39.34375 56 C 40.13375 56 40.905844 56.320906 41.464844 56.878906 L 42.585938 58 L 19.414062 58 L 20.535156 56.878906 C 21.093156 56.320906 21.86625 56 22.65625 56 z"/>
</svg>
