<?xml version="1.0"?>
<svg xmlns="http://www.w3.org/2000/svg" viewBox="0 0 64 64">
    <path d="M 5 8 C 3.346 8 2 9.346 2 11 L 2 49 C 2 50.654 3.346 52 5 52 L 26 52 L 26 54 L 23.65625 54 C 22.32025 54 21.065094 54.520844 20.121094 55.464844 L 17.292969 58.292969 C 17.006969 58.578969 16.921172 59.008813 17.076172 59.382812 C 17.230172 59.755812 17.596 60 18 60 L 46 60 C 46.404 60 46.769828 59.755812 46.923828 59.382812 C 47.078828 59.008812 46.993031 58.578969 46.707031 58.292969 L 43.878906 55.464844 C 42.934906 54.520844 41.67975 54 40.34375 54 L 38 54 L 38 52 L 59 52 C 60.654 52 62 50.654 62 49 L 62 11 C 62 9.346 60.654 8 59 8 L 5 8 z M 5 10 L 59 10 C 59.552 10 60 10.449 60 11 L 60 44 L 57 44 C 56.447 44 56 44.448 56 45 C 56 45.552 56.447 46 57 46 L 60 46 L 60 49 C 60 49.551 59.552 50 59 50 L 38 50 L 26 50 L 5 50 C 4.448 50 4 49.551 4 49 L 4 46 L 37.082031 46 C 37.635031 46 38.082031 45.552 38.082031 45 C 38.082031 44.448 37.635031 44 37.082031 44 L 4 44 L 4 11 C 4 10.449 4.448 10 5 10 z M 7 12 C 6.447 12 6 12.448 6 13 C 6 13.552 6.447 14 7 14 L 49 14 C 49.553 14 50 13.552 50 13 C 50 12.448 49.553 12 49 12 L 7 12 z M 53 12 C 52.447 12 52 12.448 52 13 C 52 13.552 52.447 14 53 14 L 57 14 C 57.553 14 58 13.552 58 13 C 58 12.448 57.553 12 57 12 L 53 12 z M 30.0625 17.001953 C 29.5915 16.972953 29.156203 17.281188 29.033203 17.742188 L 25.839844 29.722656 L 23.9375 24.648438 C 23.7975 24.275437 23.449734 24.022953 23.052734 24.001953 C 22.661734 23.981953 22.282469 24.197734 22.105469 24.552734 L 20.382812 28 L 11 28 C 10.447 28 10 28.448 10 29 C 10 29.552 10.447 30 11 30 L 21 30 C 21.379 30 21.724531 29.786266 21.894531 29.447266 L 22.869141 27.498047 L 25.064453 33.351562 C 25.216453 33.757562 25.590828 34.008047 26.048828 33.998047 C 26.483828 33.977047 26.855797 33.677813 26.966797 33.257812 L 29.683594 23.072266 L 32.009766 40.134766 C 32.073766 40.606766 32.4615 40.968047 32.9375 40.998047 C 32.9585 41.000047 32.979953 41 33.001953 41 C 33.450953 41 33.849797 40.697813 33.966797 40.257812 L 37.160156 28.277344 L 39.0625 33.351562 C 39.2025 33.724562 39.550266 33.977047 39.947266 33.998047 C 40.340266 34.020047 40.717531 33.802266 40.894531 33.447266 L 42.617188 30 L 52 30 C 52.553 30 53 29.552 53 29 C 53 28.448 52.553 28 52 28 L 42 28 C 41.621 28 41.275469 28.213734 41.105469 28.552734 L 40.130859 30.501953 L 37.935547 24.648438 C 37.782547 24.241437 37.407172 23.982953 36.951172 24.001953 C 36.516172 24.022953 36.144203 24.322187 36.033203 24.742188 L 33.316406 34.927734 L 30.990234 17.865234 C 30.926234 17.393234 30.5385 17.031953 30.0625 17.001953 z M 42 43 C 41.447 43 41 43.448 41 44 L 41 46 C 41 46.552 41.447 47 42 47 C 42.553 47 43 46.552 43 46 L 43 44 C 43 43.448 42.553 43 42 43 z M 47 43 C 46.447 43 46 43.448 46 44 L 46 46 C 46 46.552 46.447 47 47 47 C 47.553 47 48 46.552 48 46 L 48 44 C 48 43.448 47.553 43 47 43 z M 52 43 C 51.447 43 51 43.448 51 44 L 51 46 C 51 46.552 51.447 47 52 47 C 52.553 47 53 46.552 53 46 L 53 44 C 53 43.448 52.553 43 52 43 z M 28 52 L 36 52 L 36 54 L 28 54 L 28 52 z M 23.65625 56 L 26 56 L 38 56 L 40.34375 56 C 41.14575 56 41.898844 56.312906 42.464844 56.878906 L 43.585938 58 L 20.414062 58 L 21.535156 56.878906 C 22.102156 56.312906 22.85425 56 23.65625 56 z"/>
</svg>
